<svg xmlns="http://www.w3.org/2000/svg" width="24.796" height="24.796" viewBox="0 0 24.796 24.796">
  <path id="Icon_awesome-plus" data-name="Icon awesome-plus" d="M23.025,11.991h-7.97V4.021A1.771,1.771,0,0,0,13.284,2.25H11.512A1.771,1.771,0,0,0,9.741,4.021v7.97H1.771A1.771,1.771,0,0,0,0,13.762v1.771A1.771,1.771,0,0,0,1.771,17.3h7.97v7.97a1.771,1.771,0,0,0,1.771,1.771h1.771a1.771,1.771,0,0,0,1.771-1.771V17.3h7.97A1.771,1.771,0,0,0,24.8,15.534V13.762A1.771,1.771,0,0,0,23.025,11.991Z" transform="translate(0 -2.25)" fill="#fff"/>
</svg>
