<svg xmlns="http://www.w3.org/2000/svg" width="288.962" height="230.361" viewBox="0 0 288.962 230.361">
  <g id="Group_124" data-name="Group 124" transform="translate(-1079.481 -507.639)">
    <path id="Path_38" data-name="Path 38" d="M58.794,39.318c63.109,0,216.444,28.821,216.444,111.51s-46.366,86.84-109.476,86.84S-4.719,253.253-4.719,170.564-4.315,39.318,58.794,39.318Z" transform="translate(1093.204 499.164)" fill="#e6d9d9"/>
    <g id="Group_87" data-name="Group 87" transform="translate(1079.481 507.639)">
      <path id="Path_40" data-name="Path 40" d="M649.928,418.2a55.977,55.977,0,0,0,55.415-48.894l-.681-.086a55.209,55.209,0,0,1-109.547-13.839l-.681-.086A55.927,55.927,0,0,0,649.928,418.2Z" transform="translate(-568.519 -300.659)" fill="#3f3d56"/>
      <path id="Path_41" data-name="Path 41" d="M852.205,226.885a19.252,19.252,0,1,0-36.014-13.623l.642.243a18.566,18.566,0,1,1,34.729,13.137Z" transform="translate(-792.907 -199.205)" fill="#3f3d56"/>
      <path id="Path_42" data-name="Path 42" d="M873.892,272.747h34.9a3.531,3.531,0,0,0,3.528-3.528V223.011a3.532,3.532,0,0,0-3.528-3.528h-34.9a3.532,3.532,0,0,0-3.528,3.528V269.22A3.532,3.532,0,0,0,873.892,272.747Z" transform="translate(-870.364 -211.464)" fill="#e6e6e6"/>
      <path id="Path_43" data-name="Path 43" d="M892.88,275.275h18.579a3.308,3.308,0,0,0,3.3-3.3v-41.12a3.308,3.308,0,0,0-3.3-3.3H881.467a3.307,3.307,0,0,0-3.3,3.3v29.707a14.733,14.733,0,0,0,14.716,14.716Z" transform="translate(-875.486 -216.761)" fill="#fff"/>
      <path id="Path_44" data-name="Path 44" d="M895.005,284.625h24.008a.783.783,0,1,0,0-1.566H895.005a.783.783,0,0,0,0,1.566Z" transform="translate(-886.032 -253.217)" fill="#e4e4e4"/>
      <path id="Path_45" data-name="Path 45" d="M895,293.638h24.008a.783.783,0,1,0,0-1.566H895a.783.783,0,1,0,0,1.566Z" transform="translate(-886.032 -259.136)" fill="#e4e4e4"/>
      <path id="Path_46" data-name="Path 46" d="M895,302.652h10.407a.783.783,0,0,0,0-1.566H895a.783.783,0,0,0,0,1.566Z" transform="translate(-872.431 -265.056)" fill="#e4e4e4"/>
      <path id="Path_47" data-name="Path 47" d="M895.005,247.817h24.008a.783.783,0,1,0,0-1.566H895.005a.783.783,0,0,0,0,1.566Z" transform="translate(-886.032 -229.044)" fill="#e4e4e4"/>
      <path id="Path_48" data-name="Path 48" d="M895,256.83h24.008a.783.783,0,1,0,0-1.566H895a.783.783,0,1,0,0,1.566Z" transform="translate(-886.032 -234.963)" fill="#e4e4e4"/>
      <path id="Path_49" data-name="Path 49" d="M895,265.844h10.407a.783.783,0,1,0,0-1.566H895a.783.783,0,1,0,0,1.566Z" transform="translate(-872.431 -240.883)" fill="#e4e4e4"/>
      <path id="Path_50" data-name="Path 50" d="M895.005,322.721h24.008a.783.783,0,1,0,0-1.566H895.005a.783.783,0,0,0,0,1.566Z" transform="translate(-886.032 -278.236)" fill="#0ba3ba"/>
      <path id="Path_51" data-name="Path 51" d="M895,331.734h3.756a.783.783,0,1,0,0-1.566H895a.783.783,0,1,0,0,1.566Z" transform="translate(-865.78 -284.155)" fill="#0ba3ba"/>
      <path id="Path_52" data-name="Path 52" d="M895,340.748h10.407a.783.783,0,0,0,0-1.566H895a.783.783,0,0,0,0,1.566Z" transform="translate(-872.431 -290.075)" fill="#0ba3ba"/>
      <path id="Path_53" data-name="Path 53" d="M649.776,286.521a32.278,32.278,0,0,0-60.379-22.84l.642.243a31.591,31.591,0,1,1,59.095,22.354Z" transform="translate(-513.473 -226.787)" fill="#3f3d56"/>
      <ellipse id="Ellipse_15" data-name="Ellipse 15" cx="7.049" cy="7.049" rx="7.049" ry="7.049" transform="translate(73.017 0.547)" fill="#e6e6e6"/>
      <ellipse id="Ellipse_16" data-name="Ellipse 16" cx="3.277" cy="3.277" rx="3.277" ry="3.277" transform="translate(68.554 94.945)" fill="#e6e6e6"/>
      <ellipse id="Ellipse_17" data-name="Ellipse 17" cx="9.948" cy="9.948" rx="9.948" ry="9.948" transform="translate(151.213 15.583)" fill="#e6e6e6"/>
      <path id="Path_54" data-name="Path 54" d="M437.077,428.461h75.015a7.591,7.591,0,0,0,7.583-7.583V321.551a7.591,7.591,0,0,0-7.583-7.583H437.077a7.591,7.591,0,0,0-7.583,7.583v99.328A7.591,7.591,0,0,0,437.077,428.461Z" transform="translate(-326.386 -273.516)" fill="#e6e6e6"/>
      <path id="Path_55" data-name="Path 55" d="M477.094,434.076H518.2a6.912,6.912,0,0,0,6.9-6.9V338.784a6.912,6.912,0,0,0-6.9-6.9H453.736a6.912,6.912,0,0,0-6.9,6.9v65.03A30.3,30.3,0,0,0,477.094,434.076Z" transform="translate(-337.772 -285.279)" fill="#fff"/>
      <path id="Path_56" data-name="Path 56" d="M482.461,374.873h51.606a1.683,1.683,0,0,0,0-3.366H482.461a1.683,1.683,0,0,0,0,3.366Z" transform="translate(-360.066 -311.304)" fill="#0ba3ba"/>
      <path id="Path_57" data-name="Path 57" d="M482.461,394.247h51.606a1.683,1.683,0,0,0,0-3.366H482.461a1.683,1.683,0,0,0,0,3.366Z" transform="translate(-360.066 -324.027)" fill="#0ba3ba"/>
      <path id="Path_58" data-name="Path 58" d="M482.46,413.622h22.37a1.683,1.683,0,0,0,0-3.366H482.46a1.683,1.683,0,0,0,0,3.366Z" transform="translate(-330.829 -336.751)" fill="#0ba3ba"/>
      <path id="Path_59" data-name="Path 59" d="M482.461,454.2h51.606a1.683,1.683,0,0,0,0-3.366H482.461a1.683,1.683,0,0,0,0,3.366Z" transform="translate(-360.066 -363.4)" fill="#e4e4e4"/>
      <path id="Path_60" data-name="Path 60" d="M482.461,473.574h51.606a1.683,1.683,0,0,0,0-3.366H482.461a1.683,1.683,0,0,0,0,3.366Z" transform="translate(-360.066 -376.124)" fill="#e4e4e4"/>
      <path id="Path_61" data-name="Path 61" d="M482.46,492.948h22.37a1.683,1.683,0,0,0,0-3.366H482.46a1.683,1.683,0,0,0,0,3.366Z" transform="translate(-330.829 -388.848)" fill="#e4e4e4"/>
      <path id="Path_62" data-name="Path 62" d="M482.461,533.526h51.606a1.683,1.683,0,0,0,0-3.366H482.461a1.683,1.683,0,0,0,0,3.366Z" transform="translate(-360.066 -415.497)" fill="#e4e4e4"/>
      <path id="Path_63" data-name="Path 63" d="M482.461,552.9h51.606a1.683,1.683,0,0,0,0-3.366H482.461a1.683,1.683,0,0,0,0,3.366Z" transform="translate(-360.066 -428.22)" fill="#e4e4e4"/>
      <path id="Path_64" data-name="Path 64" d="M482.46,572.275h22.37a1.683,1.683,0,0,0,0-3.366H482.46a1.683,1.683,0,1,0,0,3.366Z" transform="translate(-330.829 -440.945)" fill="#e4e4e4"/>
      <path id="Path_65" data-name="Path 65" d="M720.476,321.721h37.989a3.844,3.844,0,0,0,3.84-3.84v-50.3a3.844,3.844,0,0,0-3.84-3.84H720.476a3.845,3.845,0,0,0-3.84,3.84v50.3A3.845,3.845,0,0,0,720.476,321.721Z" transform="translate(-667.582 -240.529)" fill="#e6e6e6"/>
      <path id="Path_66" data-name="Path 66" d="M740.163,324.487H761.4a3.585,3.585,0,0,0,3.581-3.581V276.144a3.585,3.585,0,0,0-3.581-3.581H728.751a3.585,3.585,0,0,0-3.581,3.581v33.349a15.011,15.011,0,0,0,14.993,14.994Z" transform="translate(-673.187 -246.324)" fill="#fff"/>
      <path id="Path_67" data-name="Path 67" d="M743.459,294.583h26.135a.852.852,0,0,0,0-1.7H743.459a.852.852,0,0,0,0,1.7Z" transform="translate(-684.638 -259.665)" fill="#e4e4e4"/>
      <path id="Path_68" data-name="Path 68" d="M743.459,304.394h26.135a.852.852,0,0,0,0-1.7H743.459a.852.852,0,1,0,0,1.7Z" transform="translate(-684.638 -266.109)" fill="#e4e4e4"/>
      <path id="Path_69" data-name="Path 69" d="M743.459,314.206h11.329a.852.852,0,0,0,0-1.7H743.459a.852.852,0,1,0,0,1.7Z" transform="translate(-669.833 -272.553)" fill="#e4e4e4"/>
      <path id="Path_70" data-name="Path 70" d="M743.459,334.756h26.135a.852.852,0,0,0,0-1.7H743.459a.852.852,0,0,0,0,1.7Z" transform="translate(-684.638 -286.048)" fill="#0ba3ba"/>
      <path id="Path_71" data-name="Path 71" d="M743.459,344.567h19.269a.852.852,0,0,0,0-1.7H743.459a.852.852,0,1,0,0,1.7Z" transform="translate(-677.773 -292.492)" fill="#0ba3ba"/>
      <path id="Path_72" data-name="Path 72" d="M743.459,354.378h11.329a.852.852,0,0,0,0-1.7H743.459a.852.852,0,1,0,0,1.7Z" transform="translate(-669.833 -298.935)" fill="#0ba3ba"/>
      <path id="Path_73" data-name="Path 73" d="M743.459,374.929h26.135a.852.852,0,0,0,0-1.7H743.459a.852.852,0,0,0,0,1.7Z" transform="translate(-684.638 -312.432)" fill="#e4e4e4"/>
      <path id="Path_74" data-name="Path 74" d="M743.459,384.739h26.135a.852.852,0,0,0,0-1.7H743.459a.852.852,0,1,0,0,1.7Z" transform="translate(-684.638 -318.875)" fill="#e4e4e4"/>
      <path id="Path_75" data-name="Path 75" d="M743.459,394.551h11.329a.852.852,0,0,0,0-1.7H743.459a.852.852,0,1,0,0,1.7Z" transform="translate(-669.833 -325.319)" fill="#e4e4e4"/>
      <path id="Path_76" data-name="Path 76" d="M323.643,454.992a2.941,2.941,0,0,1,.586-4.471l-2.41-10.168,5.1,1.863,1.507,9.37a2.956,2.956,0,0,1-4.783,3.405Z" transform="translate(-98.541 -356.518)" fill="#ffb8b8"/>
      <path id="Path_77" data-name="Path 77" d="M323,321.947l2.047,5.263s-.877,5.263.585,6.433.877,1.17.877,2.047a4.5,4.5,0,0,0,1.754,3.217c1.17.877,6.433,18.715,6.433,18.715h5.264a16.492,16.492,0,0,1,0-4.094,21.6,21.6,0,0,0-1.462-8.188c-.585-.877,0-2.047,0-3.8s-1.17-2.632-1.17-5.556-3.509-25.733-3.217-28.364-2.924-4.971-2.924-4.971h-2.924Z" transform="translate(-110.164 -266.081)" fill="#0ba3ba"/>
      <path id="Path_78" data-name="Path 78" d="M129.421,192.3l-4.865,21.711,31.176-1.939-8.478-21.323Z" transform="translate(71.031 -125.275)" fill="#ffb8b8"/>
      <path id="Path_79" data-name="Path 79" d="M241.14,590.37a33.263,33.263,0,0,1-4.294,9.45c-4.284,6.477-10.415,11.431-17.153,15.4-.467.278-.941.549-1.414.817h-4.727l-.165-.378v0l-.192-.436-.024-.051-.01.051-.189.817h-2.32c-.192-.271-.381-.542-.566-.817-.271-.4-.532-.807-.779-1.219a19.785,19.785,0,0,1-1.167-2.238c-.041-.086-.076-.172-.11-.257l.154-.168-.642-2.808,1.291-.213-1.414-4.363c.051-.161.11-.323.172-.484a10.859,10.859,0,0,1,4.051-4.768,61.679,61.679,0,0,1,5.883-3.429c.913-.511,1.812-1.05,2.688-1.62v0q1.679-1.086,3.258-2.324a.489.489,0,0,0,.051-.038.361.361,0,0,0,.041-.034,48.366,48.366,0,0,0,11.777-13.363h0a0,0,0,0,0,0,0c.1-.165.2-.33.3-.5v0a46.768,46.768,0,0,0,3.23-6.745v0c.069-.172.13-.343.2-.515q.134.227.257.453h0v0C242.653,576.529,242.969,583.7,241.14,590.37Z" transform="translate(27.269 -441.738)" fill="#0b8a18"/>
      <path id="Path_80" data-name="Path 80" d="M241.872,570.247a41.66,41.66,0,0,1-.985,9.453,40.678,40.678,0,0,1-1.153,4.2,41.653,41.653,0,0,1-3.477,7.758c-.079.134-.154.264-.237.395v0a35.137,35.137,0,0,1-1.974,2.973,16.381,16.381,0,0,1-3.913,3.934,10.329,10.329,0,0,1-4.112,1.589c-.275.051-.556.089-.841.124-1.136.134-2.31.185-3.436.426a7.5,7.5,0,0,0-1.655.532,6.311,6.311,0,0,0-3.278,4.483c-.079.33-.141.662-.189,1-.374,2.557.038,5.214-.175,7.775-.024.271-.055.546-.093.817H216.1l-.165-.378v0c.017-.144.031-.288.045-.436a33.051,33.051,0,0,0,.031-3.779c-.014-.566-.024-1.136-.017-1.706.007-.457.024-.913.058-1.366v0c.024-.281.051-.56.089-.838a10.842,10.842,0,0,1,.625-2.489,6.231,6.231,0,0,1,3.542-3.666,9.263,9.263,0,0,1,1.534-.429c1.15-.22,2.338-.275,3.494-.419.124-.014.247-.031.367-.052.154-.024.305-.051.456-.079a9.841,9.841,0,0,0,4.174-1.809,17.818,17.818,0,0,0,3.769-4.092c.563-.807,1.1-1.631,1.6-2.478a0,0,0,0,1,0,0h0c.024-.041.048-.079.072-.12l0-.007a41.044,41.044,0,0,0,4.62-11.729c.031-.151.065-.3.1-.453a41.5,41.5,0,0,0,.917-9.062v0c0-.144,0-.285-.007-.429-.007-.3.45-.36.456-.065,0,.144.007.288,0,.433h0A0,0,0,0,1,241.872,570.247Z" transform="translate(24.72 -441.411)" fill="#fff"/>
      <path id="Path_81" data-name="Path 81" d="M210.864,630.434a6.185,6.185,0,0,0,7.79-1.859c.175-.24-.19-.523-.365-.282a5.727,5.727,0,0,1-7.25,1.715c-.264-.136-.438.292-.175.427Z" transform="translate(49.68 -479.884)" fill="#fff"/>
      <path id="Path_82" data-name="Path 82" d="M261.372,641.51a11.921,11.921,0,0,1,.422-8.677c.122-.271-.305-.446-.427-.175a12.4,12.4,0,0,0-.421,9.031c.1.282.521.1.426-.178Z" transform="translate(-10.446 -482.722)" fill="#fff"/>
      <path id="Path_83" data-name="Path 83" d="M221.988,593.5a3.5,3.5,0,0,1-2.411-2.286c-.092-.283-.517-.1-.426.178a3.923,3.923,0,0,0,2.661,2.535.238.238,0,0,0,.3-.126.232.232,0,0,0-.126-.3Z" transform="translate(43.365 -455.503)" fill="#fff"/>
      <path id="Path_84" data-name="Path 84" d="M289.568,583.025v0a45.051,45.051,0,0,1-.916,7.291v0c-.027.165-.065.326-.1.487a63.332,63.332,0,0,1-3.47,10.851q-.613,1.483-1.284,2.935c-.124.275-.251.546-.381.817h-.508l-.165-.378v0l-.192-.436-.024-.051-.01.051-.189.817H277.42l-.954-.817-1.39-1.191,1.943-2.121.319-.35.048-.051.154-.168-.642-2.808,1.291-.213-1.414-4.363-.669-2.063-.168-.518-.978-3.017-2.952.553-.481-1.682a46.678,46.678,0,0,0,2.2-6.32c0-.017.01-.031.014-.048a48.6,48.6,0,0,0,1.38-17.836v0c-.021-.192-.045-.388-.072-.577v-.007a45.874,45.874,0,0,0-1.483-7.325c-.048-.182-.1-.36-.155-.539l.47.2,0,0h.007c.251.11.5.227.745.35,5.856,2.846,10.164,8.187,12.612,14.345.007.017.014.031.021.048a33.088,33.088,0,0,1,2.255,10.1A39.425,39.425,0,0,1,289.568,583.025Z" transform="translate(-42.088 -431.119)" fill="#5aa762"/>
      <path id="Path_85" data-name="Path 85" d="M301.214,695.307h-.542c-.172-.278-.357-.549-.542-.817q-.443-.623-.913-1.219c-.271-.343-.542-.683-.814-1.023s-.56-.707-.831-1.071l.319-.35c.052.069.1.137.158.206.879,1.157,1.83,2.269,2.643,3.457C300.874,694.757,301.049,695.029,301.214,695.307Z" transform="translate(-62.642 -521.013)" fill="#fff"/>
      <path id="Path_86" data-name="Path 86" d="M292.042,553.728c.089.113.182.23.268.347q1,1.3,1.9,2.688a40.507,40.507,0,0,1,2.822,5.1c.065.137.13.278.192.419a40.938,40.938,0,0,1,3.378,12.165c.007.041.01.079.014.12q.17,1.473.22,2.956a17.773,17.773,0,0,1-.546,5.533c-.069.237-.144.47-.227.7a9.39,9.39,0,0,1-.772,1.6,9.6,9.6,0,0,1-.735,1.061c-.161.206-.33.408-.508.6-.1.113-.209.227-.316.34-.089.086-.175.175-.264.261-.927.9-1.95,1.733-2.787,2.725l.168.518a27.831,27.831,0,0,1,2.784-2.763,13.012,13.012,0,0,0,1.6-1.812c.062-.089.127-.178.185-.271a9.178,9.178,0,0,0,.82-1.473c.117-.257.223-.522.319-.8a16.442,16.442,0,0,0,.755-5.492,35.51,35.51,0,0,0-.213-3.567c-.014-.154-.031-.305-.052-.46a42.079,42.079,0,0,0-6.618-17.96q-.85-1.292-1.8-2.523c-.082-.113-.168-.223-.257-.336C292.186,553.169,291.86,553.495,292.042,553.728Z" transform="translate(-60.83 -430.708)" fill="#fff"/>
      <path id="Path_87" data-name="Path 87" d="M278.685,603.427a6.185,6.185,0,0,0,5.1-6.175.231.231,0,0,0-.461-.006,5.727,5.727,0,0,1-4.756,5.734c-.293.051-.174.5.117.446Z" transform="translate(-38.632 -459.411)" fill="#fff"/>
      <path id="Path_88" data-name="Path 88" d="M306.22,637.643a11.922,11.922,0,0,1-4.887-7.183c-.066-.29-.512-.172-.446.117a12.4,12.4,0,0,0,5.1,7.464c.246.167.477-.232.233-.4Z" transform="translate(-68.888 -481.258)" fill="#fff"/>
      <path id="Path_89" data-name="Path 89" d="M306.883,577.257a3.5,3.5,0,0,1-3.3-.374c-.244-.17-.475.229-.233.4A3.923,3.923,0,0,0,307,577.7a.238.238,0,0,0,.165-.282.232.232,0,0,0-.282-.164Z" transform="translate(-70.546 -446.154)" fill="#fff"/>
      <path id="Path_90" data-name="Path 90" d="M191.248,461.349h-3.5l-1.666-13.508h5.169Z" transform="translate(14.396 -294.113)" fill="#ffb8b8"/>
      <path id="Path_91" data-name="Path 91" d="M399.45,677.651l-5.536-.33v2.372l-5.263,3.635a1.482,1.482,0,0,0,.842,2.7h6.591l1.136-2.346.444,2.346h2.485Z" transform="translate(-192.62 -512.143)" fill="#2f2e41"/>
      <path id="Path_92" data-name="Path 92" d="M97.571,456.861l-3.423.742-4.492-12.848,5.051-1.1Z" transform="translate(141.172 -291.368)" fill="#ffb8b8"/>
      <path id="Path_93" data-name="Path 93" d="M297.354,672.589l-5.48.851.5,2.318L288,680.426a1.482,1.482,0,0,0,1.4,2.461l6.441-1.4.613-2.534.931,2.2,2.429-.527Z" transform="translate(-57.819 -509.035)" fill="#2f2e41"/>
      <path id="Path_94" data-name="Path 94" d="M322.252,701.906a.407.407,0,0,1-.408.408H225.63a.408.408,0,1,1,0-.817h96.213a.407.407,0,0,1,.409.409Z" transform="translate(-58.845 -528.02)" fill="#ccc"/>
      <path id="Path_95" data-name="Path 95" d="M296.279,454.289c2.458,13.507,3.072,19.339,3.072,19.339s-1.843,2.149-.614,3.378,0,3.683,0,3.683l3.217,25.69.686,3.776,6.442-.909-.95-3.553L309.786,481s1.229-2.458.614-3.072.614-4.3.614-4.3l1.534-29.164,9.519,31.927s-.923,1.229,0,2.149,2.76,5.527,2.76,5.527l6.989,18.536,1.373,2.746.731-.346,3.213-.6.59-.11,1.05-.2.676-.127.23-.041,1.112-.209-.336-1.493L338,498.484l-2.5-18.319-.11-.491-.117-.518a2.49,2.49,0,0,0-.305-2.458,2.4,2.4,0,0,1-.614-2.149.83.83,0,0,0,.082-.1,1.274,1.274,0,0,0,.22-.5,1.662,1.662,0,0,0-.611-1.545,2.62,2.62,0,0,1-.436-.625,21.613,21.613,0,0,1-1.4-5.513s-.831-29.661-3.549-34.193c-.144-.237-3.03-4.784-3.181-4.877-3.069-1.84-27.02.358-27.02.358s-1.448,3.89-1.513,4.3A56.99,56.99,0,0,0,296.279,454.289Z" transform="translate(-101.488 -347.393)" fill="#2f2e41"/>
      <path id="Path_96" data-name="Path 96" d="M462.961,309.02a2.94,2.94,0,0,0,3.793,2.439l6.209,8.4,1.87-5.1-6.183-7.2a2.956,2.956,0,0,0-5.689,1.454Z" transform="translate(-293.024 -268.068)" fill="#ffb8b8"/>
      <path id="Path_97" data-name="Path 97" d="M360.81,324.593c.569,0,.893-.112,1.018-.351.184-.351-.135-.81-.5-1.342a4.1,4.1,0,0,1-.64-1.152c-.221-.883-1.711-23.186-.819-27.643a7.687,7.687,0,0,0-.527-3.928c-1.519-4.3-3.592-5.625-7.721-8.259l-1.047-.67c-.469-.3-.443-1.3-.416-2.361a5.211,5.211,0,0,0-.514-3.156l-.038-.05-.061-.014c-1.4-.322-6.087-.921-8.866,0l-.038.013-.029.028c-.66.66-.72,1.939-.778,3.175a4.516,4.516,0,0,1-.466,2.39,8.656,8.656,0,0,1-6.126,3.12l-.16,0-.016.16c-1.242,12.631-3.244,31.7-3.669,32.446a.224.224,0,0,0-.007.232C330.01,318.4,358.664,324.593,360.81,324.593ZM329.679,317.186Z" transform="translate(-134.219 -248.04)" fill="#0ba3ba"/>
      <ellipse id="Ellipse_18" data-name="Ellipse 18" cx="8.467" cy="8.467" rx="8.467" ry="8.467" transform="translate(199.476 7.116)" fill="#ffb8b8"/>
      <path id="Path_98" data-name="Path 98" d="M292.713,227.184c.4-.573,2.437-7.575,3.329-9.724.091.462,1.114,2.253,1.138,2.729l.009.177.175.023c.264.034,6.491.79,9.732-2.885,1.92-2.177,2.356-5.442,1.3-9.707a1.691,1.691,0,0,0,.546-.21,2.343,2.343,0,0,0,1-1.7l.179.048a5.173,5.173,0,0,1,2.61,1.326,5.546,5.546,0,0,1,1.013,3.18,13.748,13.748,0,0,0,.272,1.71,9.386,9.386,0,0,0,3.778,5.072,12.473,12.473,0,0,0,6.271,2.642,7.782,7.782,0,0,0,6.372-2.17,5.727,5.727,0,0,0,1.053-6.5l-.174-.32-.191.311A5.046,5.046,0,0,1,326,213.235a8.417,8.417,0,0,1-4.912-3.146,25.334,25.334,0,0,1-3.029-5.231,26.231,26.231,0,0,0-3.072-5.322,8.89,8.89,0,0,0-5.147-3.327,3.73,3.73,0,0,0-3.307.761,3.15,3.15,0,0,0-.885,2.029,2.544,2.544,0,0,0-1.391.08,2.58,2.58,0,0,0-1.593,2.111,9.377,9.377,0,0,0-8.185-.125,2.331,2.331,0,0,0-1.307,1.648,5.22,5.22,0,0,0-4.566,5.3v.211h.211a4.881,4.881,0,0,1,4.252,2.679,6.219,6.219,0,0,1-.191,6.346,8.948,8.948,0,0,0-1.235,6.842l.794,3.481Z" transform="translate(-90.427 -196.123)" fill="#2f2e41"/>
      <path id="Path_99" data-name="Path 99" d="M397.076,326.733l5.582-3.14c9.733-6.746,12.13-12.1,12.43-15.412a7.118,7.118,0,0,0-1.641-5.54l-.043-.032-5.031-2.571a5.064,5.064,0,0,0-7.063,2.779l-4.654,12.8-5.16-3.806-2.2-.867-1.776-2.374-4.877-2.844-3.623,3.261,4.556,9.112,2.531.645.537,1.383.048.03Z" transform="translate(-204.51 -264.004)" fill="#0ba3ba"/>
    </g>
  </g>
</svg>
