<svg xmlns="http://www.w3.org/2000/svg" width="42.068" height="29.386" viewBox="0 0 42.068 29.386">
  <path id="Icon_metro-books" data-name="Icon metro-books" d="M11.142,8.571H3.8A1.228,1.228,0,0,0,2.571,9.8V36.733A1.228,1.228,0,0,0,3.8,37.958h7.347a1.228,1.228,0,0,0,1.224-1.224V9.8a1.228,1.228,0,0,0-1.224-1.224ZM9.918,15.918H5.02V13.469h4.9v2.449ZM23.387,8.571H16.04A1.228,1.228,0,0,0,14.816,9.8V36.733a1.228,1.228,0,0,0,1.224,1.224h7.347a1.228,1.228,0,0,0,1.224-1.224V9.8a1.228,1.228,0,0,0-1.224-1.224Zm-1.224,7.347h-4.9V13.469h4.9Zm9.684-5.453L25.285,13.77a1.228,1.228,0,0,0-.542,1.644L35.762,37.284a1.228,1.228,0,0,0,1.644.542l6.561-3.306a1.228,1.228,0,0,0,.542-1.644L33.491,11.007a1.228,1.228,0,0,0-1.644-.543ZM38.08,36.733a1.224,1.224,0,1,1-1.224-1.224A1.224,1.224,0,0,1,38.08,36.733Z" transform="translate(-2.571 -8.571)" fill="#00a3e0"/>
</svg>
