<svg xmlns="http://www.w3.org/2000/svg" width="28.471" height="27" viewBox="0 0 28.471 27">
  <path id="Icon_awesome-child" data-name="Icon awesome-child" d="M8.9,3.8c0-2.1,2.39-3.8,5.338-3.8s5.338,1.7,5.338,3.8-2.39,3.8-5.338,3.8S8.9,5.894,8.9,3.8Zm18.879.072a3.094,3.094,0,0,0-3.355,0L18,8.438H10.473L4.05,3.869a3.094,3.094,0,0,0-3.355,0,1.372,1.372,0,0,0,0,2.386l7.016,4.99V25.313c0,.932,1.062,1.688,2.373,1.688H11.27c1.31,0,2.373-.756,2.373-1.687V19.406h1.186v5.906c0,.932,1.062,1.688,2.373,1.688h1.186c1.31,0,2.373-.756,2.373-1.687V11.246l7.016-4.99a1.372,1.372,0,0,0,0-2.386Z" fill="#bcbbbc"/>
</svg>
