<svg xmlns="http://www.w3.org/2000/svg" xmlns:xlink="http://www.w3.org/1999/xlink" width="28.992" height="29.972" viewBox="0 0 28.992 29.972">
  <defs>
    <filter id="Icon_ionic-logo-google" x="0" y="0" width="28.992" height="29.972" filterUnits="userSpaceOnUse">
      <feOffset dy="3" input="SourceAlpha"/>
      <feGaussianBlur stdDeviation="3" result="blur"/>
      <feFlood flood-color="#18afc7" flood-opacity="0.49"/>
      <feComposite operator="in" in2="blur"/>
      <feComposite in="SourceGraphic"/>
    </filter>
  </defs>
  <g transform="matrix(1, 0, 0, 1, 0, 0)" filter="url(#Icon_ionic-logo-google)">
    <path id="Icon_ionic-logo-google-2" data-name="Icon ionic-logo-google" d="M14.584,8.446l-.057-.256H9.314v2.358h3.114a3.156,3.156,0,0,1-3.05,2.5,3.525,3.525,0,0,1-2.454-1.045A3.873,3.873,0,0,1,5.879,9.364a4,4,0,0,1,1.026-2.64A3.373,3.373,0,0,1,9.344,5.705a3.08,3.08,0,0,1,2.074.864L12.986,4.9a5.373,5.373,0,0,0-3.694-1.52h0A5.526,5.526,0,0,0,5.251,5.138,6.3,6.3,0,0,0,3.656,9.367a6.247,6.247,0,0,0,1.533,4.16,5.66,5.66,0,0,0,4.216,1.828,5.043,5.043,0,0,0,3.788-1.7,6.216,6.216,0,0,0,1.455-4.139A7.355,7.355,0,0,0,14.584,8.446Z" transform="translate(5.34 2.62)" fill="#18afc7"/>
  </g>
</svg>
