<svg xmlns="http://www.w3.org/2000/svg" width="38.3" height="32.347" viewBox="0 0 38.3 32.347">
  <path id="Icon_material-people" data-name="Icon material-people" d="M27.614,21.363c2.89,0,5.205-3.1,5.205-6.932S30.5,7.5,27.614,7.5s-5.223,3.1-5.223,6.932S24.724,21.363,27.614,21.363Zm-13.927,0c2.89,0,5.205-3.1,5.205-6.932S16.576,7.5,13.686,7.5s-5.223,3.1-5.223,6.932S10.8,21.363,13.686,21.363Zm0,4.621c-4.056,0-12.186,2.7-12.186,8.087v5.776H25.873V34.071C25.873,28.687,17.743,25.984,13.686,25.984Zm13.927,0a15.372,15.372,0,0,0-1.689.116,10.725,10.725,0,0,1,3.43,7.971v5.776H39.8V34.071C39.8,28.687,31.67,25.984,27.614,25.984Z" transform="translate(-1.5 -7.5)" fill="#00a3e0"/>
</svg>
