<svg xmlns="http://www.w3.org/2000/svg" width="31.57" height="27" viewBox="0 0 31.57 27">
  <g id="Icon_ionic-ios-people" data-name="Icon ionic-ios-people" transform="translate(-2.215 -7.748)">
    <path id="Path_2" data-name="Path 2" d="M24.546,28.521c-.788-.37-2.074-.389-2.644-.675-.394-.2-1.02-.426-1.223-.749a12.99,12.99,0,0,1-.2-2.637,4.389,4.389,0,0,0,.7-1.3,18.6,18.6,0,0,0,.337-2.545s.464.259.647-.962a10.376,10.376,0,0,0,.373-2.387c-.084-.777-.408-.592-.408-.592a8.822,8.822,0,0,0,.408-3.461c0-2.757-1.582-5.468-4.542-5.468s-4.549,2.72-4.549,5.468a8.963,8.963,0,0,0,.4,3.461s-.33-.185-.408.592a9.66,9.66,0,0,0,.373,2.387c.183,1.231.647.962.647.962a18.781,18.781,0,0,0,.337,2.545,4.389,4.389,0,0,0,.7,1.3,12.99,12.99,0,0,1-.2,2.637c-.2.324-.83.546-1.223.74-.562.287-1.849.324-2.644.694s-3.22,2.054-3.22,6.218H27.759C27.766,30.575,25.334,28.891,24.546,28.521Z" transform="translate(0 0)" fill="#fff"/>
    <path id="Path_3" data-name="Path 3" d="M9.844,22.922a3.912,3.912,0,0,0,2.348-.861c-1.09-2.174-.5-4.71-.724-7.078s-1.245-3.775-3.284-3.775H8.156c-1.969,0-3.03,1.406-3.255,3.775s.4,5.182-.717,7.078a3.577,3.577,0,0,0,2.355.768h0a6.138,6.138,0,0,1-.07,1.554,1.63,1.63,0,0,1-.844.509,13.4,13.4,0,0,0-1.821.666A4.1,4.1,0,0,0,2.215,29H7.861a6.009,6.009,0,0,1,2.25-2.757,3.768,3.768,0,0,1,1.737-.481s.267-.555-.612-.768a5.1,5.1,0,0,1-1.35-.62A5.478,5.478,0,0,1,9.844,22.922Z" transform="translate(0 1.093)" fill="#fff"/>
    <path id="Path_4" data-name="Path 4" d="M26.156,22.922a3.912,3.912,0,0,1-2.348-.861c1.09-2.174.5-4.71.724-7.078s1.245-3.775,3.284-3.775h.028c1.969,0,3.03,1.406,3.255,3.775s-.4,5.182.717,7.078a3.577,3.577,0,0,1-2.355.768h0a6.138,6.138,0,0,0,.07,1.554,1.63,1.63,0,0,0,.844.509,13.4,13.4,0,0,1,1.821.666A4.1,4.1,0,0,1,33.785,29H28.139a6.009,6.009,0,0,0-2.25-2.757,3.768,3.768,0,0,0-1.737-.481s-.267-.555.612-.768a5.1,5.1,0,0,0,1.35-.62A5.478,5.478,0,0,0,26.156,22.922Z" transform="translate(0 1.093)" fill="#fff"/>
  </g>
</svg>
