<svg xmlns="http://www.w3.org/2000/svg" width="48.905" height="33.258" viewBox="0 0 48.905 33.258">
  <path id="Icon_awesome-school" data-name="Icon awesome-school" d="M0,14.55V32.218a1.142,1.142,0,0,0,1.223,1.039H7.336V12.472H2.445A2.285,2.285,0,0,0,0,14.55Zm27.509-3.118H25.675v-2.6a.571.571,0,0,0-.611-.52H23.841a.571.571,0,0,0-.611.52v4.157a.571.571,0,0,0,.611.52h3.668a.571.571,0,0,0,.611-.52V11.952A.571.571,0,0,0,27.509,11.432ZM38.035,7.278,25.809.349a2.811,2.811,0,0,0-2.713,0L10.87,7.278A2.017,2.017,0,0,0,9.781,9.007V33.258h9.781V23.9a1.142,1.142,0,0,1,1.223-1.039h7.336A1.142,1.142,0,0,1,29.343,23.9v9.354h9.781V9.008a2.017,2.017,0,0,0-1.089-1.73ZM24.453,16.629c-3.376,0-6.113-2.327-6.113-5.2s2.737-5.2,6.113-5.2,6.113,2.327,6.113,5.2S27.829,16.629,24.453,16.629ZM46.46,12.472H41.57V33.258h6.113a1.142,1.142,0,0,0,1.223-1.039V14.55A2.285,2.285,0,0,0,46.46,12.472Z" transform="translate(0 0)" fill="#00a3e0"/>
</svg>
