<svg xmlns="http://www.w3.org/2000/svg" xmlns:xlink="http://www.w3.org/1999/xlink" width="31.606" height="29.972" viewBox="0 0 31.606 29.972">
  <defs>
    <filter id="Icon_awesome-twitter" x="0" y="0" width="31.606" height="29.972" filterUnits="userSpaceOnUse">
      <feOffset dy="3" input="SourceAlpha"/>
      <feGaussianBlur stdDeviation="3" result="blur"/>
      <feFlood flood-color="#18afc7" flood-opacity="0.529"/>
      <feComposite operator="in" in2="blur"/>
      <feComposite in="SourceGraphic"/>
    </filter>
  </defs>
  <g transform="matrix(1, 0, 0, 1, 0, 0)" filter="url(#Icon_awesome-twitter)">
    <path id="Icon_awesome-twitter-2" data-name="Icon awesome-twitter" d="M12.207,6.364c.009.131.009.262.009.393,0,3.994-2.806,8.6-7.934,8.6A7.446,7.446,0,0,1,0,14a5.329,5.329,0,0,0,.673.037,5.318,5.318,0,0,0,3.462-1.291,2.831,2.831,0,0,1-2.607-2.1,3.252,3.252,0,0,0,.527.047,2.736,2.736,0,0,0,.734-.1A2.972,2.972,0,0,1,.552,7.627V7.59a2.647,2.647,0,0,0,1.26.383A3.092,3.092,0,0,1,.57,5.457,3.191,3.191,0,0,1,.95,3.933,7.743,7.743,0,0,0,6.7,7.094,3.684,3.684,0,0,1,6.63,6.4,2.911,2.911,0,0,1,9.419,3.381a2.687,2.687,0,0,1,2.037.954,5.24,5.24,0,0,0,1.77-.73A2.982,2.982,0,0,1,12,5.27,5.255,5.255,0,0,0,13.606,4.8a6.291,6.291,0,0,1-1.4,1.562Z" transform="translate(9 2.62)" fill="#18afc7"/>
  </g>
</svg>
