<svg xmlns="http://www.w3.org/2000/svg" xmlns:xlink="http://www.w3.org/1999/xlink" width="48.039" height="48.039" viewBox="0 0 48.039 48.039">
  <defs>
    <filter id="Icon_ionic-logo-whatsapp" x="0" y="0" width="48.039" height="48.039" filterUnits="userSpaceOnUse">
      <feOffset dx="4" dy="3" input="SourceAlpha"/>
      <feGaussianBlur stdDeviation="3.5" result="blur"/>
      <feFlood flood-color="#33b845" flood-opacity="0.6"/>
      <feComposite operator="in" in2="blur"/>
      <feComposite in="SourceGraphic"/>
    </filter>
  </defs>
  <g transform="matrix(1, 0, 0, 1, 0, 0)" filter="url(#Icon_ionic-logo-whatsapp)">
    <path id="Icon_ionic-logo-whatsapp-2" data-name="Icon ionic-logo-whatsapp" d="M16.015,2.25A13.223,13.223,0,0,0,2.741,15.421a13.035,13.035,0,0,0,1.9,6.8l-2.4,7.066L9.6,26.954a13.3,13.3,0,0,0,19.69-11.533A13.223,13.223,0,0,0,16.015,2.25Zm6.6,18.174a3.429,3.429,0,0,1-2.348,1.513c-.623.033-.64.482-4.034-.992s-5.435-5.06-5.6-5.291a6.51,6.51,0,0,1-1.252-3.528,3.761,3.761,0,0,1,1.292-2.76,1.3,1.3,0,0,1,.919-.387c.267,0,.44-.008.638,0s.494-.041.751.642.872,2.363.95,2.534a.615.615,0,0,1,.006.59,2.305,2.305,0,0,1-.36.548c-.177.19-.373.425-.531.57-.176.161-.36.336-.175.68a10.158,10.158,0,0,0,1.8,2.4,9.261,9.261,0,0,0,2.662,1.769c.333.181.531.161.738-.056s.884-.95,1.122-1.278.462-.264.769-.141,1.941,1,2.274,1.18.555.273.634.416A2.787,2.787,0,0,1,22.615,20.424Z" transform="translate(4.25 5.25)" fill="#33b845"/>
  </g>
</svg>
